<svg width="219" height="25" viewBox="0 0 219 25" fill="none" xmlns="http://www.w3.org/2000/svg">
<path d="M2.14241 15.8564C2.14241 14.3411 0.601251 14.1588 0 14.1588V10.1624C0.601251 10.1624 2.19407 10.0319 2.14241 8.67294V3.4224C2.14241 1.04466 3.65773 0 5.8518 0H9.35168V3.29181H8.43761C7.20928 3.29181 7.10596 4.25898 7.10596 4.91189V9.71903C7.10596 11.6003 5.19889 11.992 3.99782 12.0695V12.1212C5.19889 12.2001 7.10596 12.3823 7.10596 14.6811V20.0881C7.10596 20.741 7.23654 21.7082 8.62128 21.7082H9.35312V25H5.85323C3.65917 25 2.11801 23.9553 2.14384 21.5776V15.8564H2.14241Z" fill="#605BFF"/>
<path d="M31.6396 20.2184H23.2551L22.0799 23.0137H14.3483L23.4373 1.88098H31.509L40.4431 23.0137H32.7374L31.6396 20.2184ZM25.475 14.889H29.5761L27.6432 9.89958H27.5643L25.475 14.889Z" fill="#272B33"/>
<path d="M41.4867 1.88098H49.0361V17.5795H59.85V23.0123H41.4867V1.88098Z" fill="#272B33"/>
<path d="M75.0536 15.9085H72.3372V11.1286H82.3677V22.9872H77.562L77.3008 21.2107C75.9691 22.6471 73.435 23.4837 70.9798 23.4837C63.6657 23.4837 59.5904 19.6179 59.5904 12.5392C59.5904 5.4605 63.8221 1.46411 71.3973 1.46411C77.8762 1.46411 81.4019 4.78176 82.1338 9.58746H74.8714C74.6892 7.8368 72.7548 7.02748 71.5537 7.02748C68.4198 7.02748 67.0092 9.14406 67.0092 12.4603V12.5908C67.0092 15.8827 68.3939 18.1284 71.6585 18.1284C73.6431 18.1284 74.8197 17.0837 75.0536 15.9085Z" fill="#272B33"/>
<path d="M106.971 12.434C106.971 19.2774 103.81 23.3785 95.582 23.3785C87.3539 23.3785 84.1926 19.2774 84.1926 12.434C84.1926 5.59068 87.615 1.46228 95.582 1.46228C103.549 1.46228 106.971 5.56342 106.971 12.434ZM99.5784 12.4857V12.3551C99.5784 9.03747 98.7418 6.86924 95.582 6.86924C92.4222 6.86924 91.6114 9.03747 91.6114 12.3551V12.4857C91.6114 15.7775 92.3949 17.9716 95.582 17.9716C98.769 17.9716 99.5784 15.7775 99.5784 12.4857Z" fill="#272B33"/>
<path d="M109.488 23.0142V17.712H116.541V23.0142H109.488Z" fill="#605BFF"/>
<path d="M131.029 23.0137H122.879L115.329 1.88098H122.827L126.928 14.8631H126.98L131.081 1.88098H138.917L131.028 23.0137H131.029Z" fill="#272B33"/>
<path d="M139.962 1.88098H147.485V23.0137H139.962V1.88098Z" fill="#272B33"/>
<path d="M150.096 1.88098H170.341V7.28794H157.62V9.92684H169.557V14.9679H157.62V17.5795H170.707V23.0123H150.096V1.88098Z" fill="#272B33"/>
<path d="M197.95 23.0137H190.453L187.972 11.7292H187.868L185.438 23.0137H177.968L171.75 1.88098H178.933L181.885 14.3666H181.937L184.784 1.88098H191.289L194.058 14.5503H194.163L197.115 1.88098H204.35L197.95 23.0137Z" fill="#272B33"/>
<path d="M216.571 21.5762C216.597 23.9539 215.056 24.9986 212.862 24.9986H209.362V21.7067H210.094C211.479 21.7067 211.609 20.7396 211.609 20.0867V14.6797C211.609 12.3809 213.516 12.1987 214.717 12.1197V12.0681C213.516 11.9892 211.609 11.5974 211.609 9.7176V4.91046C211.609 4.25755 211.504 3.29038 210.278 3.29038H209.363V0H212.863C215.057 0 216.573 1.04466 216.573 3.4224V8.67294C216.521 10.0319 218.114 10.1624 218.715 10.1624V14.1588C218.114 14.1588 216.573 14.3411 216.573 15.8564V21.5776L216.571 21.5762Z" fill="#605BFF"/>
</svg>
