<svg width="220" height="27" viewBox="0 0 220 27" fill="none" xmlns="http://www.w3.org/2000/svg">
<path d="M2.15499 16.8134C2.15499 15.2892 0.604784 15.1058 0 15.1058V11.086C0.604784 11.086 2.20696 10.9546 2.15499 9.58773V4.30634C2.15499 1.91463 3.67922 0.863831 5.88618 0.863831H9.40663V4.17499H8.48719C7.25164 4.17499 7.14771 5.14784 7.14771 5.80458V10.64C7.14771 12.5323 5.22943 12.9263 4.02131 13.0043V13.0562C5.22943 13.1356 7.14771 13.3189 7.14771 15.6312V21.07C7.14771 21.7267 7.27906 22.6996 8.67194 22.6996H9.40807V26.0107H5.88762C3.68067 26.0107 2.13046 24.9599 2.15644 22.5682V16.8134H2.15499Z" fill="#605BFF"/>
<path d="M31.8265 21.2013H23.3928L22.2106 24.0131H14.4336L23.5761 2.75613H31.6952L40.6818 24.0131H32.9307L31.8265 21.2013ZM25.6257 15.8405H29.7509L27.8067 10.8218H27.7273L25.6257 15.8405Z" fill="white"/>
<path d="M41.7305 2.75613H49.3242V18.5469H60.2016V24.0116H41.7305V2.75613Z" fill="white"/>
<path d="M75.4945 16.8653H72.7621V12.0574H82.8515V23.9856H78.0176L77.7549 22.1987C76.4154 23.6435 73.8663 24.485 71.3967 24.485C64.0397 24.485 59.9404 20.5965 59.9404 13.4762C59.9404 6.35596 64.197 2.33609 71.8167 2.33609C78.3337 2.33609 81.8801 5.67323 82.6162 10.5072H75.3112C75.1279 8.74622 73.1822 7.93215 71.9741 7.93215C68.8217 7.93215 67.4028 10.0612 67.4028 13.3969V13.5282C67.4028 16.8394 68.7957 19.0983 72.0794 19.0983C74.0756 19.0983 75.2592 18.0475 75.4945 16.8653Z" fill="white"/>
<path d="M107.601 13.3709C107.601 20.2545 104.421 24.3797 96.1447 24.3797C87.8683 24.3797 84.6885 20.2545 84.6885 13.3709C84.6885 6.48731 88.131 2.33466 96.1447 2.33466C104.158 2.33466 107.601 6.45989 107.601 13.3709ZM100.165 13.4228V13.2915C100.165 9.95436 99.3231 7.77338 96.1447 7.77338C92.9664 7.77338 92.1509 9.95436 92.1509 13.2915V13.4228C92.1509 16.734 92.9389 18.941 96.1447 18.941C99.3505 18.941 100.165 16.734 100.165 13.4228Z" fill="white"/>
<path d="M110.132 24.013V18.6797H117.226V24.013H110.132Z" fill="#605BFF"/>
<path d="M131.798 24.0131H123.6L116.006 2.75613H123.548L127.673 15.8146H127.725L131.85 2.75613H139.732L131.797 24.0131H131.798Z" fill="white"/>
<path d="M140.783 2.75613H148.351V24.0131H140.783V2.75613Z" fill="white"/>
<path d="M150.979 2.75613H171.342V8.19486H158.546V10.8493H170.554V15.9199H158.546V18.5469H171.71V24.0116H150.979V2.75613Z" fill="white"/>
<path d="M199.112 24.0131H191.572L189.076 12.6622H188.971L186.527 24.0131H179.013L172.759 2.75613H179.984L182.954 15.3151H183.005L185.869 2.75613H192.412L195.198 15.4999H195.303L198.272 2.75613H205.55L199.112 24.0131Z" fill="white"/>
<path d="M217.843 22.5668C217.869 24.9585 216.319 26.0093 214.112 26.0093H210.592V22.6981H211.328C212.721 22.6981 212.852 21.7253 212.852 21.0685V15.6298C212.852 13.3175 214.77 13.1342 215.979 13.0548V13.0028C214.77 12.9234 212.852 12.5294 212.852 10.6385V5.80314C212.852 5.1464 212.747 4.17354 211.513 4.17354H210.593V0.863831H214.114C216.321 0.863831 217.845 1.91463 217.845 4.30634V9.58773C217.793 10.9546 219.395 11.086 220 11.086V15.1058C219.395 15.1058 217.845 15.2892 217.845 16.8134V22.5682L217.843 22.5668Z" fill="#605BFF"/>
</svg>
