<svg width="24" height="24" viewBox="0 0 24 24" fill="none" xmlns="http://www.w3.org/2000/svg">
<path d="M11.9948 24C18.56 24 24 18.5681 24 12C24 5.4319 18.5496 0 11.9843 0C5.42484 0 0 5.4319 0 12C0 18.5681 5.43529 24 11.9948 24ZM11.7666 14.5049C11.2134 14.5049 10.8995 14.2118 10.8995 13.6432C10.8995 13.5707 10.8995 13.4981 10.8995 13.436C10.8995 12.2762 11.5032 11.6388 12.4029 11.0104C13.49 10.2399 13.9881 9.82001 13.9881 8.9915C13.9881 8.03194 13.2269 7.37538 12.047 7.37538C11.1262 7.37538 10.4308 7.88653 10.0699 8.65534L9.89223 8.92759C9.70885 9.19298 9.45762 9.38268 9.07738 9.38268C8.71231 9.38268 8.32996 9.11511 8.32996 8.62549C8.32996 8.41703 8.36131 8.23783 8.41825 8.04922C8.7217 6.89638 10.0559 5.89499 12.1191 5.89499C14.1567 5.89499 15.8686 6.97167 15.8686 8.90426C15.8686 10.2992 15.0893 11.0169 13.8952 11.8073C13.0201 12.3902 12.6394 12.8238 12.6394 13.5233C12.6394 13.5911 12.6394 13.6543 12.6394 13.7269C12.6394 14.1595 12.3093 14.5049 11.7666 14.5049ZM11.741 18.061C11.0814 18.061 10.5079 17.5302 10.5079 16.8797C10.5079 16.2198 11.0709 15.6879 11.741 15.6879C12.4053 15.6879 12.9636 16.2094 12.9636 16.8797C12.9636 17.5407 12.3948 18.061 11.741 18.061Z" fill="#CBD3ED"/>
</svg>
